<?xml version="1.0" encoding="utf-8"?>
<!-- Generator: Adobe Illustrator 19.1.1, SVG Export Plug-In . SVG Version: 6.00 Build 0)  -->
<svg version="1.1" id="Layer_1" xmlns="http://www.w3.org/2000/svg" xmlns:xlink="http://www.w3.org/1999/xlink" x="0px" y="0px"
	 viewBox="0 0 262.4 141.4" style="enable-background:new 0 0 262.4 141.4;" xml:space="preserve">
<style type="text/css">
	.st0{fill:#303030;}
	.st1{fill:#4885FF;}
	.st2{fill:#EEF0F2;}
	.st3{fill:#FFFFFF;}
	.st4{fill:#191919;}
	.st5{fill:#404040;}
	.st6{fill:#7CB0EB;}
	.st7{fill:#727272;}
	.st8{fill:none;stroke:#727272;stroke-width:0.2;stroke-miterlimit:10;}
	.st9{fill:#7F7F7F;}
</style>
<g>
	<g>
		<path class="st0" d="M236,131c0.1-1-1-1.2-1-1.9V13.6C235,7,230.8,0,224.3,0h-186C31.8,0,25,7,25,13.6v115.5
			c0,0.7,1.5,0.9,1.6,1.9H236z"/>
		<g id="Screen_1_">
			<g>
				<g>
					<rect x="35.8" y="10.8" class="st1" width="190.9" height="113.4"/>
				</g>
			</g>
		</g>
		<path class="st2" d="M-0.3,131c0.9,5,5.9,10,11.7,10h239.7c5.9,0,10.8-5,11.7-10H-0.3z"/>
		<path class="st3" d="M262.4,132c0.2,0,0.3,0,0.4-1H-0.3c0.1,1,0.2,1,0.4,1H262.4z"/>
		<circle class="st4" cx="131.3" cy="6.7" r="1.2"/>
	</g>
	<rect x="35.8" y="10.7" class="st3" width="190.7" height="113.6"/>
	<g>
		<path class="st5" d="M50.8,28.2h1.9V36c0,0.6,0.3,0.9,0.8,0.9c0.1,0,0.2,0,0.4-0.1c0.1,0,0.3-0.1,0.4-0.1l0.3,1.5
			c-0.3,0.1-0.5,0.2-0.9,0.3c-0.3,0.1-0.6,0.1-0.9,0.1c-0.6,0-1-0.2-1.4-0.5c-0.3-0.3-0.5-0.8-0.5-1.3V28.2z"/>
		<path class="st5" d="M55.3,30.1v-1.9h1.9v1.9H55.3z M55.3,38.5v-7.3h1.9v7.3H55.3z"/>
		<path class="st5" d="M63.2,38.1c-0.3,0.1-0.6,0.2-0.9,0.3s-0.8,0.2-1.2,0.2c-0.3,0-0.5,0-0.7-0.1c-0.2-0.1-0.4-0.2-0.6-0.3
			c-0.2-0.1-0.3-0.3-0.4-0.6c-0.1-0.2-0.2-0.5-0.2-0.8v-4.2h-1v-1.4h1v-2.4h1.9v2.4h1.6v1.4h-1.6v3.6c0,0.3,0.1,0.4,0.2,0.6
			c0.1,0.1,0.3,0.2,0.5,0.2c0.2,0,0.4,0,0.6-0.1s0.3-0.1,0.4-0.2L63.2,38.1z"/>
		<path class="st5" d="M67.6,38.6c-0.6,0-1.1-0.1-1.6-0.3s-0.9-0.5-1.2-0.8s-0.6-0.7-0.8-1.2c-0.2-0.5-0.3-0.9-0.3-1.4
			c0-0.5,0.1-1,0.3-1.5c0.2-0.5,0.4-0.9,0.8-1.2c0.3-0.4,0.7-0.6,1.2-0.8c0.5-0.2,1-0.3,1.6-0.3c0.6,0,1.1,0.1,1.6,0.3
			c0.5,0.2,0.9,0.5,1.2,0.8c0.3,0.3,0.6,0.7,0.8,1.2c0.2,0.5,0.3,0.9,0.3,1.4c0,0.1,0,0.2,0,0.3c0,0.1,0,0.2,0,0.3h-5.7
			c0,0.3,0.1,0.5,0.2,0.8c0.1,0.2,0.3,0.4,0.4,0.6c0.2,0.2,0.4,0.3,0.6,0.4s0.5,0.1,0.7,0.1c0.4,0,0.7-0.1,1.1-0.3
			c0.3-0.2,0.6-0.4,0.7-0.7l1.6,0.4c-0.3,0.6-0.7,1-1.3,1.4S68.4,38.6,67.6,38.6z M69.5,34.2c0-0.6-0.3-1-0.6-1.3
			c-0.4-0.3-0.8-0.5-1.3-0.5c-0.3,0-0.5,0-0.7,0.1c-0.2,0.1-0.4,0.2-0.6,0.4s-0.3,0.4-0.4,0.6c-0.1,0.2-0.2,0.5-0.2,0.7H69.5z"/>
		<path class="st6" d="M75.5,38.6c-0.3,0-0.6,0-0.9-0.1c-0.3,0-0.6-0.1-0.9-0.2c-0.3-0.1-0.6-0.2-0.9-0.3c-0.3-0.1-0.5-0.3-0.7-0.4
			l0.8-1.3c0.9,0.6,1.8,0.9,2.7,0.9c0.4,0,0.7-0.1,0.9-0.2s0.3-0.3,0.3-0.6c0-0.3-0.1-0.5-0.4-0.6s-0.7-0.3-1.3-0.4
			c-0.5-0.1-0.9-0.2-1.2-0.4s-0.6-0.3-0.8-0.4c-0.2-0.2-0.4-0.3-0.4-0.5c-0.1-0.2-0.1-0.4-0.1-0.7c0-0.4,0.1-0.7,0.2-1
			c0.1-0.3,0.4-0.6,0.6-0.8c0.3-0.2,0.6-0.4,0.9-0.5c0.4-0.1,0.7-0.2,1.2-0.2c0.5,0,1,0.1,1.6,0.2c0.5,0.2,1,0.4,1.4,0.7l-0.8,1.2
			c-0.4-0.3-0.8-0.5-1.2-0.6c-0.4-0.1-0.7-0.2-1.1-0.2c-0.3,0-0.6,0.1-0.8,0.2c-0.2,0.1-0.3,0.3-0.3,0.6c0,0.3,0.1,0.4,0.3,0.5
			c0.2,0.1,0.6,0.2,1.2,0.4c0.5,0.1,1,0.3,1.3,0.4s0.7,0.3,0.9,0.4c0.2,0.2,0.4,0.4,0.5,0.6c0.1,0.2,0.2,0.5,0.2,0.8
			c0,0.4-0.1,0.7-0.2,1c-0.1,0.3-0.3,0.5-0.6,0.7c-0.3,0.2-0.6,0.4-1,0.5C76.3,38.6,75.9,38.6,75.5,38.6z"/>
		<path class="st6" d="M81.9,38.6c-0.8,0-1.3-0.2-1.7-0.7s-0.6-1.2-0.6-2.2v-4.6h1.9v4.2c0,1.1,0.4,1.7,1.2,1.7
			c0.4,0,0.7-0.1,1.1-0.3c0.3-0.2,0.6-0.6,0.8-1v-4.5h1.9v5.2c0,0.2,0,0.3,0.1,0.4s0.2,0.1,0.4,0.1v1.6c-0.2,0-0.4,0.1-0.5,0.1
			c-0.1,0-0.3,0-0.4,0c-0.3,0-0.6-0.1-0.8-0.2c-0.2-0.2-0.3-0.4-0.4-0.6l0-0.6c-0.3,0.5-0.8,0.9-1.3,1.1
			C83.1,38.5,82.5,38.6,81.9,38.6z"/>
		<path class="st6" d="M91.3,38.5c-0.5,0-0.9-0.1-1.3-0.3c-0.4-0.2-0.8-0.5-1-0.8c-0.3-0.3-0.5-0.7-0.7-1.2C88,35.8,88,35.3,88,34.8
			c0-0.5,0.1-1,0.3-1.5c0.2-0.5,0.4-0.9,0.7-1.2c0.3-0.3,0.7-0.6,1.1-0.8c0.4-0.2,0.9-0.3,1.4-0.3c0.6,0,1.1,0.1,1.5,0.4
			c0.4,0.3,0.8,0.6,1,1v-1.3h1.6v7c0,0.5-0.1,1-0.3,1.5c-0.2,0.4-0.5,0.8-0.8,1.1c-0.4,0.3-0.8,0.5-1.3,0.7s-1,0.2-1.6,0.2
			c-0.8,0-1.5-0.1-2-0.4c-0.5-0.3-1-0.6-1.4-1.1l1-1c0.3,0.3,0.6,0.6,1.1,0.8c0.4,0.2,0.9,0.3,1.4,0.3c0.3,0,0.6,0,0.8-0.1
			s0.5-0.2,0.7-0.4c0.2-0.2,0.4-0.4,0.5-0.6c0.1-0.3,0.2-0.6,0.2-0.9v-0.9c-0.2,0.4-0.6,0.7-1,1C92.2,38.4,91.8,38.5,91.3,38.5z
			 M91.9,37c0.2,0,0.4,0,0.6-0.1c0.2-0.1,0.4-0.2,0.5-0.3c0.2-0.1,0.3-0.2,0.4-0.4c0.1-0.1,0.2-0.3,0.3-0.5V34
			c-0.2-0.4-0.4-0.8-0.8-1c-0.4-0.3-0.7-0.4-1.1-0.4c-0.3,0-0.6,0.1-0.8,0.2c-0.2,0.1-0.4,0.3-0.6,0.5S90.1,33.7,90,34
			c-0.1,0.3-0.1,0.6-0.1,0.8c0,0.3,0.1,0.6,0.2,0.8c0.1,0.3,0.2,0.5,0.4,0.7c0.2,0.2,0.4,0.4,0.6,0.5C91.3,37,91.6,37,91.9,37z"/>
		<path class="st6" d="M100.1,38.5c-0.5,0-0.9-0.1-1.3-0.3c-0.4-0.2-0.8-0.5-1-0.8c-0.3-0.3-0.5-0.7-0.7-1.2
			c-0.2-0.4-0.2-0.9-0.2-1.4c0-0.5,0.1-1,0.3-1.5c0.2-0.5,0.4-0.9,0.7-1.2c0.3-0.3,0.7-0.6,1.1-0.8c0.4-0.2,0.9-0.3,1.4-0.3
			c0.6,0,1.1,0.1,1.5,0.4c0.4,0.3,0.8,0.6,1,1v-1.3h1.6v7c0,0.5-0.1,1-0.3,1.5c-0.2,0.4-0.5,0.8-0.8,1.1c-0.4,0.3-0.8,0.5-1.3,0.7
			s-1,0.2-1.6,0.2c-0.8,0-1.5-0.1-2-0.4c-0.5-0.3-1-0.6-1.4-1.1l1-1c0.3,0.3,0.6,0.6,1.1,0.8c0.4,0.2,0.9,0.3,1.4,0.3
			c0.3,0,0.6,0,0.8-0.1s0.5-0.2,0.7-0.4c0.2-0.2,0.4-0.4,0.5-0.6c0.1-0.3,0.2-0.6,0.2-0.9v-0.9c-0.2,0.4-0.6,0.7-1,1
			C101.1,38.4,100.6,38.5,100.1,38.5z M100.8,37c0.2,0,0.4,0,0.6-0.1c0.2-0.1,0.4-0.2,0.5-0.3c0.2-0.1,0.3-0.2,0.4-0.4
			c0.1-0.1,0.2-0.3,0.3-0.5V34c-0.2-0.4-0.4-0.8-0.8-1c-0.4-0.3-0.7-0.4-1.1-0.4c-0.3,0-0.6,0.1-0.8,0.2c-0.2,0.1-0.4,0.3-0.6,0.5
			S99,33.7,98.9,34c-0.1,0.3-0.1,0.6-0.1,0.8c0,0.3,0.1,0.6,0.2,0.8c0.1,0.3,0.2,0.5,0.4,0.7c0.2,0.2,0.4,0.4,0.6,0.5
			C100.2,37,100.5,37,100.8,37z"/>
		<path class="st6" d="M109.5,38.6c-0.6,0-1.1-0.1-1.6-0.3s-0.9-0.5-1.2-0.8s-0.6-0.7-0.8-1.2c-0.2-0.5-0.3-0.9-0.3-1.4
			c0-0.5,0.1-1,0.3-1.5c0.2-0.5,0.4-0.9,0.8-1.2c0.3-0.4,0.7-0.6,1.2-0.8c0.5-0.2,1-0.3,1.6-0.3c0.6,0,1.1,0.1,1.6,0.3
			c0.5,0.2,0.9,0.5,1.2,0.8c0.3,0.3,0.6,0.7,0.8,1.2c0.2,0.5,0.3,0.9,0.3,1.4c0,0.1,0,0.2,0,0.3c0,0.1,0,0.2,0,0.3h-5.7
			c0,0.3,0.1,0.5,0.2,0.8c0.1,0.2,0.3,0.4,0.4,0.6c0.2,0.2,0.4,0.3,0.6,0.4s0.5,0.1,0.7,0.1c0.4,0,0.7-0.1,1.1-0.3
			c0.3-0.2,0.6-0.4,0.7-0.7l1.6,0.4c-0.3,0.6-0.7,1-1.3,1.4S110.3,38.6,109.5,38.6z M111.4,34.2c0-0.6-0.3-1-0.6-1.3
			c-0.4-0.3-0.8-0.5-1.3-0.5c-0.3,0-0.5,0-0.7,0.1c-0.2,0.1-0.4,0.2-0.6,0.4s-0.3,0.4-0.4,0.6c-0.1,0.2-0.2,0.5-0.2,0.7H111.4z"/>
		<path class="st6" d="M117.4,38.6c-0.3,0-0.6,0-0.9-0.1c-0.3,0-0.6-0.1-0.9-0.2c-0.3-0.1-0.6-0.2-0.9-0.3c-0.3-0.1-0.5-0.3-0.7-0.4
			l0.8-1.3c0.9,0.6,1.8,0.9,2.7,0.9c0.4,0,0.7-0.1,0.9-0.2s0.3-0.3,0.3-0.6c0-0.3-0.1-0.5-0.4-0.6s-0.7-0.3-1.3-0.4
			c-0.5-0.1-0.9-0.2-1.2-0.4s-0.6-0.3-0.8-0.4c-0.2-0.2-0.4-0.3-0.4-0.5c-0.1-0.2-0.1-0.4-0.1-0.7c0-0.4,0.1-0.7,0.2-1
			c0.1-0.3,0.4-0.6,0.6-0.8c0.3-0.2,0.6-0.4,0.9-0.5c0.4-0.1,0.7-0.2,1.2-0.2c0.5,0,1,0.1,1.6,0.2c0.5,0.2,1,0.4,1.4,0.7l-0.8,1.2
			c-0.4-0.3-0.8-0.5-1.2-0.6c-0.4-0.1-0.7-0.2-1.1-0.2c-0.3,0-0.6,0.1-0.8,0.2c-0.2,0.1-0.3,0.3-0.3,0.6c0,0.3,0.1,0.4,0.3,0.5
			c0.2,0.1,0.6,0.2,1.2,0.4c0.5,0.1,1,0.3,1.3,0.4s0.7,0.3,0.9,0.4c0.2,0.2,0.4,0.4,0.5,0.6c0.1,0.2,0.2,0.5,0.2,0.8
			c0,0.4-0.1,0.7-0.2,1c-0.1,0.3-0.3,0.5-0.6,0.7c-0.3,0.2-0.6,0.4-1,0.5C118.3,38.6,117.9,38.6,117.4,38.6z"/>
		<path class="st6" d="M126,38.1c-0.3,0.1-0.6,0.2-0.9,0.3s-0.8,0.2-1.2,0.2c-0.3,0-0.5,0-0.7-0.1c-0.2-0.1-0.4-0.2-0.6-0.3
			c-0.2-0.1-0.3-0.3-0.4-0.6c-0.1-0.2-0.2-0.5-0.2-0.8v-4.2h-1v-1.4h1v-2.4h1.9v2.4h1.6v1.4h-1.6v3.6c0,0.3,0.1,0.4,0.2,0.6
			c0.1,0.1,0.3,0.2,0.5,0.2c0.2,0,0.4,0,0.6-0.1s0.3-0.1,0.4-0.2L126,38.1z"/>
	</g>
	<rect x="50" y="66.6" class="st7" width="140" height="0.5"/>
	<g>
		<path class="st5" d="M58.9,65.4c-0.4,0-0.7-0.1-1-0.2s-0.6-0.3-0.8-0.6c-0.2-0.2-0.4-0.5-0.5-0.9s-0.2-0.7-0.2-1
			c0-0.4,0.1-0.7,0.2-1c0.1-0.3,0.3-0.6,0.5-0.9s0.5-0.4,0.8-0.6c0.3-0.1,0.6-0.2,1-0.2c0.4,0,0.8,0.1,1.1,0.3s0.6,0.5,0.8,0.8V58
			h0.9v6.2c0,0.2,0.1,0.3,0.3,0.3v0.8c-0.1,0-0.1,0-0.2,0c-0.1,0-0.1,0-0.2,0c-0.2,0-0.4-0.1-0.5-0.2c-0.1-0.1-0.2-0.2-0.2-0.4
			l0-0.5c-0.2,0.3-0.5,0.6-0.8,0.8S59.2,65.4,58.9,65.4z M59.1,64.6c0.2,0,0.3,0,0.5-0.1c0.2-0.1,0.3-0.1,0.5-0.3
			c0.1-0.1,0.3-0.2,0.4-0.4c0.1-0.1,0.2-0.3,0.2-0.5V62c-0.1-0.2-0.1-0.3-0.3-0.5c-0.1-0.1-0.3-0.3-0.4-0.4
			c-0.1-0.1-0.3-0.2-0.5-0.3c-0.2-0.1-0.3-0.1-0.5-0.1c-0.3,0-0.5,0.1-0.7,0.2c-0.2,0.1-0.4,0.3-0.5,0.4c-0.1,0.2-0.3,0.4-0.3,0.6
			s-0.1,0.5-0.1,0.7c0,0.3,0,0.5,0.1,0.7c0.1,0.2,0.2,0.4,0.4,0.6s0.3,0.3,0.6,0.4S58.8,64.6,59.1,64.6z"/>
	</g>
	<rect x="50.3" y="67.1" class="st8" width="139.6" height="31.3"/>
	<g>
		<path class="st9" d="M58.9,79.4c-0.4,0-0.7-0.1-1-0.2s-0.6-0.3-0.8-0.6c-0.2-0.2-0.4-0.5-0.5-0.9s-0.2-0.7-0.2-1
			c0-0.4,0.1-0.7,0.2-1c0.1-0.3,0.3-0.6,0.5-0.9s0.5-0.4,0.8-0.6c0.3-0.1,0.6-0.2,1-0.2c0.4,0,0.8,0.1,1.1,0.3s0.6,0.5,0.8,0.8V72
			h0.9v6.2c0,0.2,0.1,0.3,0.3,0.3v0.8c-0.1,0-0.1,0-0.2,0c-0.1,0-0.1,0-0.2,0c-0.2,0-0.4-0.1-0.5-0.2c-0.1-0.1-0.2-0.2-0.2-0.4
			l0-0.5c-0.2,0.3-0.5,0.6-0.8,0.8S59.2,79.4,58.9,79.4z M59.1,78.6c0.2,0,0.3,0,0.5-0.1c0.2-0.1,0.3-0.1,0.5-0.3
			c0.1-0.1,0.3-0.2,0.4-0.4c0.1-0.1,0.2-0.3,0.2-0.5V76c-0.1-0.2-0.1-0.3-0.3-0.5c-0.1-0.1-0.3-0.3-0.4-0.4
			c-0.1-0.1-0.3-0.2-0.5-0.3c-0.2-0.1-0.3-0.1-0.5-0.1c-0.3,0-0.5,0.1-0.7,0.2c-0.2,0.1-0.4,0.3-0.5,0.4c-0.1,0.2-0.3,0.4-0.3,0.6
			s-0.1,0.5-0.1,0.7c0,0.3,0,0.5,0.1,0.7c0.1,0.2,0.2,0.4,0.4,0.6s0.3,0.3,0.6,0.4S58.8,78.6,59.1,78.6z"/>
		<path class="st6" d="M64.6,79.4c-0.5,0-1-0.2-1.2-0.6c-0.3-0.4-0.4-0.9-0.4-1.6v-3.1h0.9v3c0,1.1,0.4,1.6,1.1,1.6
			c0.4,0,0.7-0.1,1-0.3c0.3-0.2,0.6-0.5,0.7-0.9v-3.3h0.9v4.1c0,0.2,0.1,0.3,0.3,0.3v0.8c-0.1,0-0.1,0-0.2,0c-0.1,0-0.1,0-0.2,0
			c-0.2,0-0.4,0-0.5-0.1s-0.2-0.2-0.2-0.4l0-0.6c-0.2,0.4-0.5,0.7-0.9,0.9C65.5,79.3,65.1,79.4,64.6,79.4z"/>
		<path class="st6" d="M73.6,79.3h-0.9v-2.9c0-0.6-0.1-1-0.3-1.2c-0.2-0.3-0.4-0.4-0.8-0.4c-0.2,0-0.4,0-0.5,0.1s-0.4,0.2-0.5,0.3
			c-0.2,0.1-0.3,0.3-0.4,0.4c-0.1,0.2-0.2,0.4-0.3,0.6v3.1H69v-5.2h0.8v1.1c0.2-0.4,0.5-0.7,0.9-0.9c0.4-0.2,0.8-0.3,1.3-0.3
			c0.3,0,0.5,0.1,0.8,0.2c0.2,0.1,0.4,0.3,0.5,0.5c0.1,0.2,0.2,0.4,0.3,0.7c0,0.3,0.1,0.6,0.1,0.9V79.3z"/>
		<path class="st6" d="M77,79.4c-0.4,0-0.7-0.1-1-0.2c-0.3-0.1-0.6-0.3-0.8-0.6s-0.4-0.5-0.5-0.9c-0.1-0.3-0.2-0.7-0.2-1
			c0-0.4,0.1-0.7,0.2-1s0.3-0.6,0.5-0.9s0.5-0.4,0.8-0.6c0.3-0.1,0.6-0.2,1-0.2c0.4,0,0.8,0.1,1.1,0.3c0.3,0.2,0.6,0.5,0.8,0.8v-1
			h0.8v5.2c0,0.4-0.1,0.7-0.2,1c-0.1,0.3-0.3,0.5-0.6,0.7c-0.2,0.2-0.5,0.3-0.8,0.4s-0.7,0.1-1,0.1c-0.6,0-1.1-0.1-1.4-0.3
			c-0.4-0.2-0.7-0.5-0.9-0.8l0.5-0.5c0.2,0.3,0.5,0.5,0.8,0.7s0.7,0.2,1.1,0.2c0.2,0,0.5,0,0.7-0.1c0.2-0.1,0.4-0.2,0.6-0.3
			c0.2-0.1,0.3-0.3,0.4-0.5c0.1-0.2,0.1-0.4,0.1-0.7v-0.9c-0.1,0.2-0.2,0.3-0.4,0.4c-0.1,0.1-0.3,0.2-0.4,0.3
			c-0.2,0.1-0.3,0.2-0.5,0.2C77.3,79.3,77.2,79.4,77,79.4z M77.2,78.6c0.2,0,0.4,0,0.5-0.1c0.2-0.1,0.3-0.2,0.5-0.3
			c0.1-0.1,0.3-0.2,0.4-0.4s0.2-0.3,0.2-0.4V76c-0.1-0.2-0.2-0.3-0.3-0.5c-0.1-0.1-0.2-0.3-0.4-0.4s-0.3-0.2-0.5-0.3
			s-0.3-0.1-0.5-0.1c-0.3,0-0.5,0.1-0.7,0.2s-0.4,0.3-0.5,0.4c-0.1,0.2-0.3,0.4-0.3,0.6s-0.1,0.5-0.1,0.7c0,0.3,0,0.5,0.1,0.7
			s0.2,0.4,0.4,0.6c0.2,0.2,0.3,0.3,0.6,0.4C76.8,78.6,77,78.6,77.2,78.6z"/>
		<path class="st6" d="M83.4,79.4c-0.4,0-0.8-0.1-1.1-0.2c-0.3-0.1-0.6-0.3-0.8-0.6c-0.2-0.2-0.4-0.5-0.5-0.9
			c-0.1-0.3-0.2-0.7-0.2-1s0.1-0.7,0.2-1c0.1-0.3,0.3-0.6,0.5-0.9s0.5-0.4,0.8-0.6c0.3-0.1,0.7-0.2,1.1-0.2c0.4,0,0.8,0.1,1.1,0.2
			s0.6,0.3,0.8,0.6c0.2,0.2,0.4,0.5,0.5,0.9c0.1,0.3,0.2,0.7,0.2,1c0,0.1,0,0.1,0,0.2c0,0.1,0,0.1,0,0.1h-4.3c0,0.3,0.1,0.5,0.2,0.7
			c0.1,0.2,0.2,0.4,0.4,0.6c0.2,0.2,0.3,0.3,0.5,0.4c0.2,0.1,0.4,0.1,0.6,0.1c0.2,0,0.3,0,0.5-0.1s0.3-0.1,0.4-0.2
			c0.1-0.1,0.3-0.2,0.4-0.3c0.1-0.1,0.2-0.2,0.2-0.4l0.8,0.2c-0.1,0.2-0.2,0.4-0.4,0.5c-0.1,0.2-0.3,0.3-0.5,0.4
			c-0.2,0.1-0.4,0.2-0.7,0.3C83.9,79.4,83.7,79.4,83.4,79.4z M85.2,76.3c0-0.2-0.1-0.5-0.2-0.7s-0.2-0.4-0.4-0.5
			c-0.2-0.1-0.3-0.3-0.5-0.3s-0.4-0.1-0.7-0.1s-0.5,0-0.7,0.1c-0.2,0.1-0.4,0.2-0.5,0.4c-0.2,0.1-0.3,0.3-0.4,0.5
			c-0.1,0.2-0.2,0.4-0.2,0.7H85.2z"/>
		<path class="st6" d="M89.3,79.4c-0.4,0-0.8-0.1-1.1-0.2s-0.6-0.3-0.8-0.6s-0.4-0.5-0.5-0.9c-0.1-0.3-0.2-0.7-0.2-1
			c0-0.4,0.1-0.7,0.2-1c0.1-0.3,0.3-0.6,0.5-0.9s0.5-0.4,0.8-0.6s0.7-0.2,1.1-0.2c0.4,0,0.7,0.1,1.1,0.2s0.6,0.3,0.8,0.6
			s0.4,0.5,0.5,0.9s0.2,0.7,0.2,1c0,0.4-0.1,0.7-0.2,1s-0.3,0.6-0.5,0.9s-0.5,0.4-0.8,0.6S89.7,79.4,89.3,79.4z M87.6,76.7
			c0,0.3,0,0.5,0.1,0.8s0.2,0.4,0.4,0.6c0.2,0.2,0.3,0.3,0.5,0.4s0.4,0.1,0.7,0.1c0.2,0,0.5,0,0.7-0.1s0.4-0.2,0.6-0.4
			c0.2-0.2,0.3-0.4,0.4-0.6C91,77.2,91,77,91,76.7c0-0.3,0-0.5-0.1-0.8c-0.1-0.2-0.2-0.4-0.4-0.6c-0.2-0.2-0.3-0.3-0.6-0.4
			s-0.4-0.1-0.7-0.1c-0.2,0-0.5,0.1-0.7,0.2c-0.2,0.1-0.4,0.2-0.5,0.4c-0.2,0.2-0.3,0.4-0.4,0.6S87.6,76.4,87.6,76.7z"/>
		<path class="st6" d="M97.5,79.3h-0.9v-2.9c0-0.6-0.1-1-0.3-1.2c-0.2-0.3-0.4-0.4-0.8-0.4c-0.2,0-0.4,0-0.5,0.1s-0.4,0.2-0.5,0.3
			c-0.2,0.1-0.3,0.3-0.4,0.4c-0.1,0.2-0.2,0.4-0.3,0.6v3.1H93v-5.2h0.8v1.1c0.2-0.4,0.5-0.7,0.9-0.9c0.4-0.2,0.8-0.3,1.3-0.3
			c0.3,0,0.5,0.1,0.8,0.2c0.2,0.1,0.4,0.3,0.5,0.5c0.1,0.2,0.2,0.4,0.3,0.7c0,0.3,0.1,0.6,0.1,0.9V79.3z"/>
		<path class="st6" d="M100.7,79.4c-0.4,0-0.8-0.1-1.2-0.2c-0.4-0.1-0.8-0.3-1-0.6l0.4-0.6c0.3,0.2,0.6,0.4,0.9,0.5s0.6,0.2,1,0.2
			c0.4,0,0.7-0.1,0.9-0.2c0.2-0.1,0.3-0.4,0.3-0.6c0-0.1,0-0.2-0.1-0.3c-0.1-0.1-0.1-0.2-0.3-0.2c-0.1-0.1-0.3-0.1-0.5-0.2
			s-0.4-0.1-0.6-0.2c-0.3-0.1-0.6-0.2-0.8-0.2s-0.4-0.2-0.6-0.3s-0.3-0.2-0.3-0.4c-0.1-0.1-0.1-0.3-0.1-0.5c0-0.3,0.1-0.5,0.2-0.7
			c0.1-0.2,0.2-0.4,0.4-0.5c0.2-0.1,0.4-0.2,0.6-0.3c0.2-0.1,0.5-0.1,0.8-0.1c0.4,0,0.8,0.1,1.1,0.2c0.3,0.1,0.6,0.3,0.9,0.5
			l-0.4,0.5c-0.2-0.2-0.5-0.3-0.7-0.4s-0.6-0.1-0.8-0.1c-0.3,0-0.6,0.1-0.8,0.2c-0.2,0.1-0.3,0.4-0.3,0.7c0,0.1,0,0.2,0.1,0.3
			c0,0.1,0.1,0.1,0.2,0.2c0.1,0.1,0.2,0.1,0.4,0.2c0.2,0,0.3,0.1,0.6,0.1c0.3,0.1,0.6,0.2,0.9,0.2c0.3,0.1,0.5,0.2,0.6,0.3
			c0.2,0.1,0.3,0.2,0.4,0.4s0.1,0.3,0.1,0.6c0,0.5-0.2,0.9-0.6,1.2C101.8,79.3,101.3,79.4,100.7,79.4z"/>
	</g>
	<g>
		<path class="st9" d="M58.9,92.9c-0.4,0-0.7-0.1-1-0.2s-0.6-0.3-0.8-0.6c-0.2-0.2-0.4-0.5-0.5-0.9s-0.2-0.7-0.2-1
			c0-0.4,0.1-0.7,0.2-1c0.1-0.3,0.3-0.6,0.5-0.9s0.5-0.4,0.8-0.6c0.3-0.1,0.6-0.2,1-0.2c0.4,0,0.8,0.1,1.1,0.3s0.6,0.5,0.8,0.8v-3.1
			h0.9v6.2c0,0.2,0.1,0.3,0.3,0.3v0.8c-0.1,0-0.1,0-0.2,0c-0.1,0-0.1,0-0.2,0c-0.2,0-0.4-0.1-0.5-0.2c-0.1-0.1-0.2-0.2-0.2-0.4
			l0-0.5c-0.2,0.3-0.5,0.6-0.8,0.8S59.2,92.9,58.9,92.9z M59.1,92.1c0.2,0,0.3,0,0.5-0.1c0.2-0.1,0.3-0.1,0.5-0.3
			c0.1-0.1,0.3-0.2,0.4-0.4c0.1-0.1,0.2-0.3,0.2-0.5v-1.5c-0.1-0.2-0.1-0.3-0.3-0.5c-0.1-0.1-0.3-0.3-0.4-0.4
			c-0.1-0.1-0.3-0.2-0.5-0.3c-0.2-0.1-0.3-0.1-0.5-0.1c-0.3,0-0.5,0.1-0.7,0.2c-0.2,0.1-0.4,0.3-0.5,0.4c-0.1,0.2-0.3,0.4-0.3,0.6
			s-0.1,0.5-0.1,0.7c0,0.3,0,0.5,0.1,0.7c0.1,0.2,0.2,0.4,0.4,0.6s0.3,0.3,0.6,0.4S58.8,92.1,59.1,92.1z"/>
		<path class="st6" d="M65.8,88.3c-0.4,0-0.8,0.1-1.2,0.3c-0.3,0.2-0.6,0.5-0.7,0.9v3.2H63v-5.2h0.8v1.2c0.2-0.4,0.4-0.7,0.7-0.9
			c0.3-0.2,0.6-0.4,0.9-0.4c0.1,0,0.1,0,0.2,0c0,0,0.1,0,0.1,0V88.3z"/>
		<path class="st6" d="M67.9,92.9c-0.3,0-0.5,0-0.7-0.1c-0.2-0.1-0.4-0.2-0.6-0.3c-0.2-0.1-0.3-0.3-0.4-0.5s-0.1-0.4-0.1-0.6
			c0-0.2,0.1-0.5,0.2-0.7c0.1-0.2,0.3-0.4,0.5-0.5c0.2-0.1,0.4-0.3,0.7-0.3c0.3-0.1,0.6-0.1,0.9-0.1c0.3,0,0.5,0,0.8,0.1
			c0.3,0,0.5,0.1,0.7,0.2v-0.4c0-0.4-0.1-0.8-0.4-1c-0.2-0.2-0.6-0.4-1-0.4c-0.5,0-1.1,0.2-1.7,0.6l-0.3-0.6c0.3-0.2,0.7-0.4,1-0.5
			c0.3-0.1,0.7-0.2,1-0.2c0.7,0,1.2,0.2,1.6,0.6s0.6,0.9,0.6,1.5v2.1c0,0.2,0.1,0.3,0.3,0.3v0.8c-0.1,0-0.1,0-0.2,0
			c-0.1,0-0.1,0-0.2,0c-0.1,0-0.3,0-0.4-0.1s-0.2-0.2-0.2-0.4l0-0.4c-0.1,0.2-0.3,0.3-0.4,0.4s-0.3,0.2-0.5,0.3
			c-0.2,0.1-0.4,0.1-0.5,0.2C68.3,92.9,68.1,92.9,67.9,92.9z M68.2,92.2c0.3,0,0.6-0.1,0.8-0.2c0.3-0.1,0.5-0.3,0.6-0.4
			c0.1-0.1,0.2-0.3,0.2-0.4v-0.8c-0.2-0.1-0.4-0.1-0.7-0.2s-0.5-0.1-0.7-0.1c-0.5,0-0.8,0.1-1.1,0.3c-0.3,0.2-0.4,0.4-0.4,0.8
			c0,0.1,0,0.3,0.1,0.4c0.1,0.1,0.1,0.2,0.2,0.3c0.1,0.1,0.2,0.2,0.4,0.2C67.8,92.2,68,92.2,68.2,92.2z"/>
		<path class="st6" d="M74.2,92.9c-0.4,0-0.7-0.1-1-0.2c-0.3-0.1-0.6-0.3-0.8-0.6s-0.4-0.5-0.5-0.9c-0.1-0.3-0.2-0.7-0.2-1
			c0-0.4,0.1-0.7,0.2-1s0.3-0.6,0.5-0.9s0.5-0.4,0.8-0.6c0.3-0.1,0.6-0.2,1-0.2c0.4,0,0.8,0.1,1.1,0.3c0.3,0.2,0.6,0.5,0.8,0.8v-1
			h0.8v5.2c0,0.4-0.1,0.7-0.2,1c-0.1,0.3-0.3,0.5-0.6,0.7c-0.2,0.2-0.5,0.3-0.8,0.4s-0.7,0.1-1,0.1c-0.6,0-1.1-0.1-1.4-0.3
			c-0.4-0.2-0.7-0.5-0.9-0.8l0.5-0.5c0.2,0.3,0.5,0.5,0.8,0.7s0.7,0.2,1.1,0.2c0.2,0,0.5,0,0.7-0.1c0.2-0.1,0.4-0.2,0.6-0.3
			c0.2-0.1,0.3-0.3,0.4-0.5c0.1-0.2,0.1-0.4,0.1-0.7v-0.9c-0.1,0.2-0.2,0.3-0.4,0.4c-0.1,0.1-0.3,0.2-0.4,0.3
			c-0.2,0.1-0.3,0.2-0.5,0.2C74.6,92.8,74.4,92.9,74.2,92.9z M74.5,92.1c0.2,0,0.4,0,0.5-0.1c0.2-0.1,0.3-0.2,0.5-0.3
			c0.1-0.1,0.3-0.2,0.4-0.4s0.2-0.3,0.2-0.4v-1.5c-0.1-0.2-0.2-0.3-0.3-0.5c-0.1-0.1-0.2-0.3-0.4-0.4s-0.3-0.2-0.5-0.3
			s-0.3-0.1-0.5-0.1c-0.3,0-0.5,0.1-0.7,0.2s-0.4,0.3-0.5,0.4c-0.1,0.2-0.3,0.4-0.3,0.6s-0.1,0.5-0.1,0.7c0,0.3,0,0.5,0.1,0.7
			s0.2,0.4,0.4,0.6c0.2,0.2,0.3,0.3,0.6,0.4C74,92.1,74.2,92.1,74.5,92.1z"/>
		<path class="st6" d="M80.6,92.9c-0.4,0-0.8-0.1-1.1-0.2s-0.6-0.3-0.8-0.6s-0.4-0.5-0.5-0.9c-0.1-0.3-0.2-0.7-0.2-1
			c0-0.4,0.1-0.7,0.2-1c0.1-0.3,0.3-0.6,0.5-0.9s0.5-0.4,0.8-0.6s0.7-0.2,1.1-0.2c0.4,0,0.7,0.1,1.1,0.2s0.6,0.3,0.8,0.6
			s0.4,0.5,0.5,0.9s0.2,0.7,0.2,1c0,0.4-0.1,0.7-0.2,1s-0.3,0.6-0.5,0.9s-0.5,0.4-0.8,0.6S81,92.9,80.6,92.9z M78.9,90.2
			c0,0.3,0,0.5,0.1,0.8s0.2,0.4,0.4,0.6c0.2,0.2,0.3,0.3,0.5,0.4s0.4,0.1,0.7,0.1c0.2,0,0.5,0,0.7-0.1s0.4-0.2,0.6-0.4
			c0.2-0.2,0.3-0.4,0.4-0.6c0.1-0.2,0.1-0.5,0.1-0.8c0-0.3,0-0.5-0.1-0.8c-0.1-0.2-0.2-0.4-0.4-0.6c-0.2-0.2-0.3-0.3-0.6-0.4
			s-0.4-0.1-0.7-0.1c-0.2,0-0.5,0.1-0.7,0.2c-0.2,0.1-0.4,0.2-0.5,0.4c-0.2,0.2-0.3,0.4-0.4,0.6S78.9,89.9,78.9,90.2z"/>
		<path class="st6" d="M88.8,92.8h-0.9v-2.9c0-0.6-0.1-1-0.3-1.2c-0.2-0.3-0.4-0.4-0.8-0.4c-0.2,0-0.4,0-0.5,0.1s-0.4,0.2-0.5,0.3
			c-0.2,0.1-0.3,0.3-0.4,0.4c-0.1,0.2-0.2,0.4-0.3,0.6v3.1h-0.9v-5.2h0.8v1.1c0.2-0.4,0.5-0.7,0.9-0.9c0.4-0.2,0.8-0.3,1.3-0.3
			c0.3,0,0.5,0.1,0.8,0.2c0.2,0.1,0.4,0.3,0.5,0.5c0.1,0.2,0.2,0.4,0.3,0.7c0,0.3,0.1,0.6,0.1,0.9V92.8z"/>
		<path class="st6" d="M92,92.9c-0.4,0-0.8-0.1-1.2-0.2c-0.4-0.1-0.8-0.3-1-0.6l0.4-0.6c0.3,0.2,0.6,0.4,0.9,0.5s0.6,0.2,1,0.2
			c0.4,0,0.7-0.1,0.9-0.2c0.2-0.1,0.3-0.4,0.3-0.6c0-0.1,0-0.2-0.1-0.3c-0.1-0.1-0.1-0.2-0.3-0.2c-0.1-0.1-0.3-0.1-0.5-0.2
			s-0.4-0.1-0.6-0.2c-0.3-0.1-0.6-0.2-0.8-0.2s-0.4-0.2-0.6-0.3s-0.3-0.2-0.3-0.4C90,89.5,90,89.3,90,89.1c0-0.3,0.1-0.5,0.2-0.7
			c0.1-0.2,0.2-0.4,0.4-0.5c0.2-0.1,0.4-0.2,0.6-0.3c0.2-0.1,0.5-0.1,0.8-0.1c0.4,0,0.8,0.1,1.1,0.2c0.3,0.1,0.6,0.3,0.9,0.5
			l-0.4,0.5c-0.2-0.2-0.5-0.3-0.7-0.4s-0.6-0.1-0.8-0.1c-0.3,0-0.6,0.1-0.8,0.2c-0.2,0.1-0.3,0.4-0.3,0.7c0,0.1,0,0.2,0.1,0.3
			c0,0.1,0.1,0.1,0.2,0.2c0.1,0.1,0.2,0.1,0.4,0.2c0.2,0,0.3,0.1,0.6,0.1c0.3,0.1,0.6,0.2,0.9,0.2c0.3,0.1,0.5,0.2,0.6,0.3
			c0.2,0.1,0.3,0.2,0.4,0.4s0.1,0.3,0.1,0.6c0,0.5-0.2,0.9-0.6,1.2C93.1,92.8,92.6,92.9,92,92.9z"/>
	</g>
</g>
</svg>
