<?xml version="1.0" encoding="utf-8"?>
<!-- Generator: Adobe Illustrator 19.1.1, SVG Export Plug-In . SVG Version: 6.00 Build 0)  -->
<svg version="1.1" id="Layer_1" xmlns="http://www.w3.org/2000/svg" xmlns:xlink="http://www.w3.org/1999/xlink" x="0px" y="0px"
	 viewBox="0 0 263 141" style="enable-background:new 0 0 263 141;" xml:space="preserve">
<style type="text/css">
	.st0{fill:#303030;}
	.st1{fill:#F4F4F4;}
	.st2{fill:#EEF0F2;}
	.st3{fill:#FFFFFF;}
	.st4{fill:#191919;}
	.st5{fill:#C3DBEF;}
	.st6{fill:#76849F;}
	.st7{fill:#88B8DE;}
	.st8{fill:#F7A695;}
</style>
<g>
	<g>
		<path class="st0" d="M236.2,131c0.1-1-1.2-1.2-1.2-1.9V13.6C235,7,231,0,224.5,0h-186C32,0,25,7,25,13.6v115.5
			c0,0.7,1.7,0.9,1.8,1.9H236.2z"/>
		<g id="Screen_8_">
			<g>
				<g>
					<rect x="36" y="10.8" class="st1" width="188.9" height="113.4"/>
				</g>
			</g>
		</g>
		<path class="st2" d="M-0.1,131c0.9,5,5.9,10,11.7,10h239.7c5.9,0,10.8-5,11.7-10H-0.1z"/>
		<path class="st3" d="M262.6,132c0.2,0,0.3,0,0.4-1H-0.1c0.1,1,0.2,1,0.4,1H262.6z"/>
		<circle class="st4" cx="131.5" cy="6.7" r="1.2"/>
	</g>
	<g>
		<rect x="39.1" y="14" class="st5" width="38.9" height="36"/>
		<rect x="81.1" y="14" class="st6" width="18" height="18"/>
		<rect x="81.1" y="35.1" class="st7" width="18" height="41"/>
		<rect x="39" y="52.9" class="st7" width="18" height="41"/>
		<rect x="60" y="52.9" class="st8" width="18" height="68.3"/>
		<rect x="39" y="96.8" class="st5" width="18" height="24.4"/>
		<rect x="81.1" y="79.6" class="st5" width="18" height="41.4"/>
		<rect x="102.2" y="14" class="st8" width="38.7" height="18"/>
		<rect x="102.2" y="35.3" class="st6" width="38.7" height="57.5"/>
		<rect x="102.2" y="96.1" class="st7" width="38.7" height="24.8"/>
		<rect x="144.3" y="35.3" class="st8" width="38.9" height="36"/>
		<rect x="144.5" y="14" class="st6" width="77.2" height="18"/>
		<rect x="186.2" y="35.1" class="st7" width="35.4" height="57.6"/>
		<rect x="144.3" y="74.7" class="st5" width="38.9" height="18"/>
		<rect x="144.5" y="96.3" class="st8" width="77" height="24.8"/>
	</g>
</g>
</svg>
