<?xml version="1.0" encoding="utf-8"?>
<!-- Generator: Adobe Illustrator 19.1.1, SVG Export Plug-In . SVG Version: 6.00 Build 0)  -->
<svg version="1.1" id="Layer_1_copy_3" xmlns="http://www.w3.org/2000/svg" xmlns:xlink="http://www.w3.org/1999/xlink" x="0px"
	 y="0px" viewBox="0 0 413.2 221.1" style="enable-background:new 0 0 413.2 221.1;" xml:space="preserve">
<style type="text/css">
	.st0{fill:#FFDF40;}
	.st1{display:none;}
	.st2{display:inline;}
</style>
<g>
	<g>
		<g>
			<path class="st0" d="M49.8,159.2c-4.3,12.4-9.4,24.5-15.3,36.3c-2.9,5.7,5.7,10.8,8.6,5c6.3-12.5,11.7-25.4,16.3-38.7
				C61.5,155.8,51.9,153.1,49.8,159.2L49.8,159.2z"/>
		</g>
	</g>
	<g>
		<g>
			<path class="st0" d="M126.2,163.2c1.8,11,4.6,21.8,8.4,32.3c2.2,6,11.9,3.4,9.6-2.7c-3.9-10.5-6.7-21.2-8.4-32.3
				C134.8,154.2,125.2,156.9,126.2,163.2L126.2,163.2z"/>
		</g>
	</g>
	<g>
		<g>
			<path class="st0" d="M230.1,160.5c2.2,9.1,3.4,18.3,3.7,27.6c0.2,6.4,10.2,6.4,10,0c-0.3-10.2-1.7-20.3-4.1-30.3
				C238.2,151.6,228.6,154.3,230.1,160.5L230.1,160.5z"/>
		</g>
	</g>
	<g>
		<g>
			<path class="st0" d="M333.4,158c10.6,9.2,20.3,19.4,28.7,30.7c3.8,5.1,12.5,0.1,8.6-5c-8.9-12-18.9-23-30.2-32.7
				C335.6,146.8,328.5,153.8,333.4,158L333.4,158z"/>
		</g>
	</g>
	<g>
		<g>
			<path class="st0" d="M367.1,105.1c13.7,0.3,27.4-1.2,40.8-4.3c6.3-1.5,3.6-11.1-2.7-9.6c-12.6,2.9-25.2,4.2-38.1,4
				C360.7,95,360.7,105,367.1,105.1L367.1,105.1z"/>
		</g>
	</g>
	<g>
		<g>
			<path class="st0" d="M304.3,57.1c6.3-11.3,10.9-23.4,13.6-36.1c1.4-6.3-8.3-9-9.6-2.7c-2.6,11.9-6.7,23.1-12.6,33.7
				C292.5,57.7,301.2,62.8,304.3,57.1L304.3,57.1z"/>
		</g>
	</g>
	<g>
		<g>
			<path class="st0" d="M224.6,53.3c-2.4-15.3-4-30.6-5.1-46c-0.4-6.4-10.4-6.4-10,0c1.1,16.3,2.9,32.5,5.4,48.7
				C215.9,62.3,225.5,59.6,224.6,53.3L224.6,53.3z"/>
		</g>
	</g>
	<g>
		<g>
			<path class="st0" d="M125.2,46.7c-5.6-15.8-13.4-30.5-23.5-43.9c-3.8-5.1-12.5-0.1-8.6,5c9.5,12.7,17.2,26.6,22.5,41.6
				C117.7,55.4,127.3,52.8,125.2,46.7L125.2,46.7z"/>
		</g>
	</g>
	<g>
		<g>
			<path class="st0" d="M43.4,79C31.9,72,19.3,67.2,5.9,65.1c-6.3-1-9,8.7-2.7,9.6c12.6,2,24.3,6.2,35.2,12.9
				C43.9,91,48.9,82.4,43.4,79L43.4,79z"/>
		</g>
	</g>
</g>
<g class="st1">
	<g class="st2">
		<g>
			<path class="st0" d="M43.2,126.1c-9.3,9.4-19.5,17.7-30.6,24.9c-5.4,3.5-0.4,12.1,5,8.6c11.8-7.6,22.7-16.4,32.6-26.4
				C54.8,128.6,47.7,121.5,43.2,126.1L43.2,126.1z"/>
		</g>
	</g>
	<g class="st2">
		<g>
			<path class="st0" d="M291.1,165c5.9,11.4,11.8,22.8,17.8,34.2c3,5.7,11.6,0.7,8.6-5c-5.9-11.4-11.8-22.8-17.8-34.2
				C296.8,154.3,288.1,159.3,291.1,165L291.1,165z"/>
		</g>
	</g>
	<g class="st2">
		<g>
			<path class="st0" d="M357.3,141.2c8.8,6.7,18.5,11.8,28.9,15.6c6.1,2.2,8.7-7.5,2.7-9.6c-9.6-3.5-18.4-8.4-26.5-14.6
				C357.2,128.7,352.3,137.3,357.3,141.2L357.3,141.2z"/>
		</g>
	</g>
	<g class="st2">
		<g>
			<path class="st0" d="M337.2,73.4c13.7-13.4,25.2-28.9,34.1-45.9c3-5.7-5.6-10.8-8.6-5c-8.5,16.3-19.4,31-32.5,43.9
				C325.5,70.8,332.6,77.9,337.2,73.4L337.2,73.4z"/>
		</g>
	</g>
	<g class="st2">
		<g>
			<path class="st0" d="M227.4,50.7c0.2-7.7-0.3-15.4-1.5-23c-0.9-6.3-10.6-3.6-9.6,2.7c1,6.8,1.3,13.6,1.1,20.4
				C217.2,57.1,227.2,57.1,227.4,50.7L227.4,50.7z"/>
		</g>
	</g>
	<g class="st2">
		<g>
			<path class="st0" d="M116.2,55.3c-1-11.3-4.1-22-9.3-32.1c-3-5.7-11.6-0.7-8.6,5c4.4,8.5,7.1,17.6,7.9,27
				C106.8,61.6,116.8,61.7,116.2,55.3L116.2,55.3z"/>
		</g>
	</g>
	<g class="st2">
		<g>
			<path class="st0" d="M55.3,69.5C45.1,65.6,34.8,62.1,24.4,59c-6.2-1.8-8.8,7.8-2.7,9.6c10.5,3.1,20.8,6.6,30.9,10.5
				C58.6,81.5,61.2,71.8,55.3,69.5L55.3,69.5z"/>
		</g>
	</g>
	<g class="st2">
		<g>
			<path class="st0" d="M97.1,165.1c-1.7,13.3-4.4,26.5-7.9,39.4c-1.7,6.2,8,8.9,9.6,2.7c3.7-13.8,6.4-27.9,8.2-42.1
				C107.9,158.8,97.9,158.8,97.1,165.1L97.1,165.1z"/>
		</g>
	</g>
	<g class="st2">
		<g>
			<path class="st0" d="M195.7,161.2c0.9,9.6,1.8,19.3,2.6,28.9c0.6,6.4,10.6,6.4,10,0c-0.9-9.6-1.8-19.3-2.6-28.9
				C205.1,154.8,195.1,154.8,195.7,161.2L195.7,161.2z"/>
		</g>
	</g>
</g>
<g class="st1">
	<g class="st2">
		<g>
			<path class="st0" d="M120.7,34.2c0.2,11.4,0.4,22.8,0.7,34.2c0.1,6.4,10.1,6.4,10,0c-0.2-11.4-0.4-22.8-0.7-34.2
				C130.6,27.8,120.6,27.8,120.7,34.2L120.7,34.2z"/>
		</g>
	</g>
	<g class="st2">
		<g>
			<path class="st0" d="M205.5,26.3c0.4,13.6,0.8,27.2,1.1,40.8c0.2,6.4,10.2,6.4,10,0c-0.4-13.6-0.8-27.2-1.1-40.8
				C215.3,19.9,205.3,19.9,205.5,26.3L205.5,26.3z"/>
		</g>
	</g>
	<g class="st2">
		<g>
			<path class="st0" d="M313.4,67.1c3.3-10.7,7-21.2,11.2-31.6c2.4-6-7.2-8.5-9.6-2.7c-4.2,10.4-8,20.9-11.2,31.6
				C301.8,70.6,311.5,73.3,313.4,67.1L313.4,67.1z"/>
		</g>
	</g>
	<g class="st2">
		<g>
			<path class="st0" d="M350,113.4c11.7-1.7,23.1-4.6,34.2-8.6c6-2.2,3.4-11.9-2.7-9.6c-11.1,4.1-22.5,7-34.2,8.6
				C341,104.7,343.7,114.3,350,113.4L350,113.4z"/>
		</g>
	</g>
	<g class="st2">
		<g>
			<path class="st0" d="M307.5,167c6.1,8.2,12.7,16,19.9,23.3c4.5,4.6,11.6-2.5,7.1-7.1c-6.6-6.7-12.7-13.8-18.3-21.3
				C312.3,156.9,303.7,161.8,307.5,167L307.5,167z"/>
		</g>
	</g>
	<g class="st2">
		<g>
			<path class="st0" d="M212.9,169.8c2.1,15,2.2,30.3,0.6,45.4c-0.7,6.4,9.3,6.3,10,0c1.7-16.1,1.3-32.1-1-48
				C221.6,160.8,212,163.5,212.9,169.8L212.9,169.8z"/>
		</g>
	</g>
	<g class="st2">
		<g>
			<path class="st0" d="M122.6,161.8c-0.7,11.7-1.8,23.3-3.3,34.9c-0.8,6.4,9.2,6.3,10,0c1.5-11.6,2.5-23.2,3.3-34.9
				C133,155.4,123,155.4,122.6,161.8L122.6,161.8z"/>
		</g>
	</g>
	<g class="st2">
		<g>
			<path class="st0" d="M62,151.6c-8.7,6.6-17.9,12.3-27.7,17c-5.8,2.8-0.7,11.4,5,8.6c9.8-4.8,19-10.4,27.7-17
				C72.1,156.4,67.1,147.7,62,151.6L62,151.6z"/>
		</g>
	</g>
	<g class="st2">
		<g>
			<path class="st0" d="M26.7,62.7c8.2,7.6,16.1,15.5,23.7,23.7c4.4,4.8,11.4-2.3,7.1-7.1C49.9,71.1,42,63.2,33.8,55.7
				C29.1,51.3,22,58.4,26.7,62.7L26.7,62.7z"/>
		</g>
	</g>
</g>
<g>
	<path d="M86.1,127.1c-1,0-1.9-0.2-2.7-0.5c-0.8-0.3-1.6-0.8-2.2-1.3c-0.6-0.6-1.1-1.2-1.4-2c-0.3-0.8-0.5-1.6-0.5-2.5
		c0-0.9,0.2-1.8,0.6-2.6s1-1.5,1.7-2c0.7-0.6,1.6-1,2.7-1.3c1-0.3,2.2-0.5,3.4-0.5c0.9,0,1.8,0.1,2.6,0.2c0.8,0.2,1.6,0.4,2.3,0.6
		v-1.1c0-1.3-0.4-2.3-1.1-3c-0.7-0.7-1.9-1.1-3.3-1.1c-1.1,0-2.1,0.2-3.1,0.6c-1,0.4-2.1,0.9-3.1,1.7l-1.6-3.2
		c2.6-1.7,5.3-2.5,8.3-2.5c2.9,0,5.1,0.7,6.7,2.1c1.6,1.4,2.4,3.4,2.4,6.1v6.2c0,0.5,0.1,0.9,0.3,1.1c0.2,0.2,0.6,0.4,1.1,0.4v4.3
		c-0.5,0.1-0.9,0.2-1.3,0.2S97,127,96.7,127c-1,0-1.7-0.2-2.2-0.7s-0.8-1-0.9-1.7l-0.1-1.1c-0.9,1.2-2,2.1-3.2,2.7
		C88.9,126.8,87.6,127.1,86.1,127.1z M87.6,123.4c0.9,0,1.7-0.2,2.5-0.5c0.8-0.3,1.4-0.7,1.8-1.2c0.6-0.4,0.8-0.9,0.8-1.4V118
		c-0.6-0.2-1.3-0.4-2-0.6c-0.7-0.1-1.4-0.2-2.1-0.2c-1.3,0-2.4,0.3-3.2,0.9c-0.8,0.6-1.3,1.3-1.3,2.3c0,0.9,0.3,1.6,1,2.1
		C85.8,123.1,86.6,123.4,87.6,123.4z"/>
	<path d="M114.5,111.3c-1.5,0-2.9,0.3-4.1,0.9c-1.2,0.6-2.1,1.4-2.6,2.6v12h-5.1v-19.9h4.7v4.3c0.7-1.4,1.6-2.5,2.7-3.3
		s2.3-1.3,3.5-1.3c0.3,0,0.5,0,0.6,0c0.1,0,0.3,0,0.4,0.1V111.3z"/>
	<path d="M117.3,104.1V99h5.1v5.1H117.3z M117.3,126.8v-19.9h5.1v19.9H117.3z"/>
	<path d="M136.2,127.1c-1.6,0-3-0.3-4.3-0.8c-1.3-0.5-2.4-1.3-3.3-2.2c-0.9-0.9-1.6-2-2.1-3.3c-0.5-1.2-0.7-2.5-0.7-3.9
		c0-1.4,0.2-2.8,0.7-4c0.5-1.3,1.2-2.4,2.1-3.3s2-1.7,3.3-2.3c1.3-0.6,2.8-0.8,4.4-0.8c1.6,0,3.1,0.3,4.4,0.8
		c1.3,0.6,2.4,1.3,3.3,2.2c0.9,0.9,1.6,2,2.1,3.3c0.5,1.2,0.7,2.5,0.7,3.9c0,0.3,0,0.6,0,1s0,0.6-0.1,0.8h-15.4
		c0.1,0.8,0.3,1.5,0.6,2.1c0.3,0.6,0.7,1.1,1.2,1.6c0.5,0.4,1,0.8,1.6,1c0.6,0.2,1.2,0.3,1.9,0.3c1,0,2-0.2,2.9-0.7
		c0.9-0.5,1.5-1.1,1.8-2l4.4,1.2c-0.7,1.5-1.9,2.8-3.5,3.7C140.3,126.6,138.4,127.1,136.2,127.1z M141.4,115.1
		c-0.1-1.5-0.7-2.7-1.7-3.6c-1-0.9-2.2-1.3-3.6-1.3c-0.7,0-1.3,0.1-1.9,0.4c-0.6,0.2-1.1,0.6-1.6,1c-0.5,0.4-0.8,1-1.1,1.6
		c-0.3,0.6-0.5,1.3-0.5,2H141.4z"/>
	<path d="M149.7,99h5.1v21.1c0,1.5,0.7,2.3,2.1,2.3c0.3,0,0.6-0.1,1-0.2c0.4-0.1,0.7-0.2,1-0.3l0.7,4.1c-0.7,0.3-1.5,0.6-2.4,0.8
		s-1.7,0.3-2.5,0.3c-1.6,0-2.8-0.4-3.7-1.3c-0.9-0.8-1.3-2.1-1.3-3.6V99z"/>
	<path d="M161.7,99h5.1v21.1c0,1.5,0.7,2.3,2.1,2.3c0.3,0,0.6-0.1,1-0.2c0.4-0.1,0.7-0.2,1-0.3l0.7,4.1c-0.7,0.3-1.5,0.6-2.4,0.8
		s-1.7,0.3-2.5,0.3c-1.6,0-2.8-0.4-3.7-1.3c-0.9-0.8-1.3-2.1-1.3-3.6V99z"/>
	<path d="M183.1,127.1c-1.6,0-3-0.3-4.3-0.8c-1.3-0.5-2.4-1.3-3.3-2.2c-0.9-0.9-1.6-2-2.1-3.3c-0.5-1.2-0.7-2.5-0.7-3.9
		c0-1.4,0.2-2.8,0.7-4c0.5-1.3,1.2-2.4,2.1-3.3s2-1.7,3.3-2.3c1.3-0.6,2.8-0.8,4.4-0.8c1.6,0,3.1,0.3,4.4,0.8
		c1.3,0.6,2.4,1.3,3.3,2.2c0.9,0.9,1.6,2,2.1,3.3c0.5,1.2,0.7,2.5,0.7,3.9c0,0.3,0,0.6,0,1s0,0.6-0.1,0.8H178
		c0.1,0.8,0.3,1.5,0.6,2.1c0.3,0.6,0.7,1.1,1.2,1.6c0.5,0.4,1,0.8,1.6,1c0.6,0.2,1.2,0.3,1.9,0.3c1,0,2-0.2,2.9-0.7
		c0.9-0.5,1.5-1.1,1.8-2l4.4,1.2c-0.7,1.5-1.9,2.8-3.5,3.7C187.2,126.6,185.3,127.1,183.1,127.1z M188.3,115.1
		c-0.1-1.5-0.7-2.7-1.7-3.6c-1-0.9-2.2-1.3-3.6-1.3c-0.7,0-1.3,0.1-1.9,0.4c-0.6,0.2-1.1,0.6-1.6,1c-0.5,0.4-0.8,1-1.1,1.6
		c-0.3,0.6-0.5,1.3-0.5,2H188.3z"/>
	<path d="M204.5,116.8c0-1.4,0.2-2.7,0.7-4c0.5-1.2,1.2-2.3,2.1-3.3s2-1.7,3.3-2.2c1.3-0.6,2.7-0.8,4.4-0.8c2.2,0,4,0.5,5.6,1.4
		c1.5,0.9,2.7,2.2,3.4,3.7l-5,1.5c-0.4-0.7-1-1.3-1.7-1.7c-0.7-0.4-1.5-0.6-2.4-0.6c-0.7,0-1.4,0.1-2.1,0.4
		c-0.6,0.3-1.2,0.7-1.7,1.2c-0.5,0.5-0.8,1.1-1.1,1.9s-0.4,1.5-0.4,2.4s0.1,1.7,0.4,2.4c0.3,0.7,0.7,1.4,1.1,1.9
		c0.5,0.5,1,0.9,1.7,1.2c0.6,0.3,1.3,0.4,2,0.4c0.9,0,1.8-0.2,2.5-0.7c0.8-0.5,1.3-1,1.6-1.7l5,1.5c-0.7,1.5-1.8,2.8-3.4,3.7
		c-1.6,1-3.5,1.4-5.7,1.4c-1.6,0-3.1-0.3-4.4-0.8s-2.4-1.3-3.3-2.3s-1.6-2.1-2.1-3.3C204.7,119.5,204.5,118.2,204.5,116.8z"/>
	<path d="M245.6,126.8h-5.1v-11.2c0-1.6-0.3-2.7-0.9-3.5c-0.6-0.7-1.4-1.1-2.5-1.1c-0.5,0-0.9,0.1-1.4,0.3s-1,0.5-1.4,0.9
		c-0.5,0.4-0.9,0.8-1.3,1.3s-0.7,1.1-0.8,1.7v11.6h-5.1V99h5.1v11.5c0.7-1.3,1.7-2.3,3-3c1.3-0.7,2.6-1,4.2-1c1.3,0,2.3,0.2,3.2,0.7
		c0.8,0.4,1.4,1,1.9,1.8c0.5,0.7,0.8,1.6,1,2.5c0.2,0.9,0.3,1.9,0.3,2.9V126.8z"/>
	<path d="M255.5,127.1c-1,0-1.9-0.2-2.7-0.5c-0.8-0.3-1.6-0.8-2.2-1.3c-0.6-0.6-1.1-1.2-1.4-2c-0.3-0.8-0.5-1.6-0.5-2.5
		c0-0.9,0.2-1.8,0.6-2.6s1-1.5,1.7-2c0.7-0.6,1.6-1,2.7-1.3c1-0.3,2.2-0.5,3.4-0.5c0.9,0,1.8,0.1,2.6,0.2c0.8,0.2,1.6,0.4,2.3,0.6
		v-1.1c0-1.3-0.4-2.3-1.1-3c-0.7-0.7-1.9-1.1-3.3-1.1c-1.1,0-2.1,0.2-3.1,0.6c-1,0.4-2.1,0.9-3.1,1.7l-1.6-3.2
		c2.6-1.7,5.3-2.5,8.3-2.5c2.9,0,5.1,0.7,6.7,2.1c1.6,1.4,2.4,3.4,2.4,6.1v6.2c0,0.5,0.1,0.9,0.3,1.1c0.2,0.2,0.6,0.4,1.1,0.4v4.3
		c-0.5,0.1-0.9,0.2-1.3,0.2s-0.8,0.1-1.1,0.1c-1,0-1.7-0.2-2.2-0.7s-0.8-1-0.9-1.7l-0.1-1.1c-0.9,1.2-2,2.1-3.2,2.7
		C258.3,126.8,256.9,127.1,255.5,127.1z M256.9,123.4c0.9,0,1.7-0.2,2.5-0.5c0.8-0.3,1.4-0.7,1.8-1.2c0.6-0.4,0.8-0.9,0.8-1.4V118
		c-0.6-0.2-1.3-0.4-2-0.6c-0.7-0.1-1.4-0.2-2.1-0.2c-1.3,0-2.4,0.3-3.2,0.9c-0.8,0.6-1.3,1.3-1.3,2.3c0,0.9,0.3,1.6,1,2.1
		C255.1,123.1,256,123.4,256.9,123.4z"/>
	<path d="M283.9,127.1c-1.5,0-2.9-0.3-4.1-1c-1.2-0.7-2.1-1.6-2.7-2.8v11.6H272v-28h4.4v3.4c0.7-1.2,1.7-2.1,2.9-2.8
		c1.2-0.7,2.5-1,4-1c1.3,0,2.6,0.3,3.7,0.8c1.1,0.5,2.1,1.3,2.9,2.2c0.8,0.9,1.5,2,1.9,3.3c0.5,1.3,0.7,2.6,0.7,4
		c0,1.4-0.2,2.8-0.6,4.1c-0.4,1.3-1,2.4-1.8,3.3c-0.8,0.9-1.7,1.7-2.8,2.2C286.3,126.9,285.1,127.1,283.9,127.1z M282.2,122.8
		c0.8,0,1.5-0.2,2.1-0.5c0.6-0.3,1.2-0.8,1.7-1.3c0.5-0.6,0.8-1.2,1.1-1.9c0.3-0.7,0.4-1.5,0.4-2.3c0-0.8-0.1-1.6-0.4-2.3
		c-0.3-0.7-0.7-1.3-1.2-1.9c-0.5-0.5-1.1-1-1.7-1.3c-0.7-0.3-1.4-0.5-2.2-0.5c-0.5,0-1,0.1-1.5,0.2s-1,0.4-1.4,0.7
		c-0.4,0.3-0.8,0.7-1.2,1.1c-0.3,0.4-0.6,0.8-0.8,1.3v4.7c0.5,1.1,1.2,2.1,2.1,2.8C280.1,122.4,281.1,122.8,282.2,122.8z"/>
	<path d="M296,104.1V99h5.1v5.1H296z M296,126.8v-19.9h5.1v19.9H296z"/>
	<path d="M324.1,126.8H319v-11.2c0-1.6-0.3-2.8-0.8-3.5c-0.6-0.7-1.3-1.1-2.3-1.1c-0.5,0-1,0.1-1.6,0.3c-0.5,0.2-1,0.5-1.5,0.9
		c-0.5,0.4-0.9,0.8-1.3,1.3s-0.7,1.1-0.8,1.7v11.6h-5.1v-19.9h4.6v3.7c0.7-1.3,1.8-2.3,3.2-3c1.4-0.7,3-1.1,4.7-1.1
		c1.2,0,2.3,0.2,3,0.7s1.4,1.1,1.8,1.8c0.4,0.7,0.7,1.6,0.9,2.5c0.2,0.9,0.2,1.9,0.2,2.9V126.8z"/>
</g>
</svg>
