<?xml version="1.0" encoding="utf-8"?>
<!-- Generator: Adobe Illustrator 19.1.0, SVG Export Plug-In . SVG Version: 6.00 Build 0)  -->
<svg version="1.1" id="Layer_1" xmlns="http://www.w3.org/2000/svg" xmlns:xlink="http://www.w3.org/1999/xlink" x="0px" y="0px"
	 viewBox="0 0 285 467.4" style="enable-background:new 0 0 285 467.4;" xml:space="preserve">
<style type="text/css">
	.st0{fill:#5D4157;}
	.st1{fill:#353535;}
	.st2{fill:#FFFFFF;}
	.st3{display:none;fill:#FFFFFF;}
	.st4{display:none;fill:#898989;}
	.st5{fill:#FFE497;}
	.st6{fill:none;stroke:#FFFFFF;stroke-width:2;stroke-miterlimit:10;}
	.st7{fill:none;stroke:#5D4157;stroke-width:2;stroke-miterlimit:10;}
</style>
<g>
	<g>
		<g>
			<path class="st0" d="M264.5,446.6H20c-11,0-20-9-20-20V20C0,9,9,0,20,0h244.5c11,0,20,9,20,20v406.6
				C284.5,437.6,275.5,446.6,264.5,446.6z"/>
			<path class="st1" d="M25.3,446.6H5c-2.8,0-5-2.2-5-5V5c0-2.8,2.2-5,5-5h20.3c2.8,0,5,2.2,5,5v436.6
				C30.3,444.4,28.1,446.6,25.3,446.6z"/>
		</g>
		<g>
			<path class="st2" d="M265.6,448.6L30,449.3c-11,0-20-8.9-20.1-19.9L8.9,22.7c0-11,8.9-20,19.9-20.1L264.4,2
				c11,0,20,8.9,20.1,19.9l1.1,406.6C285.6,439.6,276.7,448.6,265.6,448.6z"/>
			<path class="st2" d="M27.9,449.3l-6.4,0c-6.4,0-11.5-5.1-11.5-11.5L8.8,14.2C8.8,7.9,14,2.7,20.3,2.7l6.4,0
				c6.4,0,11.5,5.1,11.5,11.5l1.1,423.6C39.4,444.1,34.2,449.2,27.9,449.3z"/>
			
				<rect x="32.1" y="2.7" transform="matrix(1 -2.662255e-003 2.662255e-003 1 -0.6014 9.212632e-002)" class="st3" width="4.3" height="446.6"/>
		</g>
		<g>
			<path class="st0" d="M265,450.9H20c-11,0-20-9-20-20V23.5c0-11,9-20,20-20h245c11,0,20,9,20,20v407.4
				C285,442,276.1,450.9,265,450.9z"/>
			<path class="st1" d="M25.4,450.9H5c-2.8,0-5-2.2-5-5V8.5c0-2.8,2.2-5,5-5h20.4c2.8,0,5,2.2,5,5v437.4
				C30.4,448.7,28.2,450.9,25.4,450.9z"/>
			<rect x="23.5" y="3.5" class="st4" width="4.5" height="447.4"/>
		</g>
	</g>
	<g>
		<circle class="st5" cx="147.3" cy="120.6" r="24.3"/>
		<g>
			<g>
				<path class="st6" d="M156.6,167.1h-19c-0.6,0-1.1,0-1.1,0.6v1.3c0,0.6,0.5,0.6,1.1,0.6h18.9c0.6,0,1.1,0,1.1,0.6v1.3
					c0,0.6-0.5,0.5-1.1,0.6h-20"/>
				<path class="st6" d="M157.7,165.2v1.3c0,0.6-0.5,0.6-1.1,0.6h-19"/>
				<path class="st6" d="M140.9,134.6c2.3,0,4-0.8,5.5-1.8s3.1-4.6,3.1-6.5c0-2-1.4-2.8-2.6-2.8c-1.2,0-2.6,0.4-2.6,2.6
					c0,2.2,1.1,4.8,2.6,6.3s4,2.1,6.5,2.1c2.5,0,4.1,0.3,5.6-0.7c1.4-1,1.3-4.3-2.1-4.4c-3.4-0.1-4.9,3.2-4.9,4.6v10.3v9.9l4.6,0
					c0.6,0,1.1,0,1.1,1.1"/>
				<path class="st6" d="M141.9,144.2c0,5,0,10.1,0,10.1h-4.4"/>
				<path class="st6" d="M137.5,154.3"/>
				<path class="st6" d="M141.7,154.2h-4.5c0,0-0.4-5.1-2.6-7.5c-2.1-2.4-5.6-5.5-8.1-8.4c-2.5-2.9-8.7-11.7-5.1-25.2
					c3.5-13.4,16.6-19.6,26-19.6"/>
				<path class="st6" d="M152.3,153"/>
				<path class="st6" d="M159.8,146.7c2.1-2.4,5.6-5.5,8.1-8.4s8.7-11.7,5.1-25.2c-3.5-13.4-16.6-19.6-26-19.6"/>
				<path class="st6" d="M153.1,153"/>
				<path class="st6" d="M157.7,155.3v1.3c0,0.6-0.5,0.6-1.1,0.6h-19c-0.6,0-1.1,0-1.1,0.6v1.3c0,0.6,0.5,0.6,1.1,0.6h18.9
					c0.6,0,1.1,0.1,1.1,0.6"/>
				<path class="st6" d="M136.6,167.2"/>
				<path class="st6" d="M156.6,162.2h-19c-0.6,0-1.1,0-1.1,0.6v1.3c0,0.6,0.5,0.6,1.1,0.6h18.9c0.6,0,1.1,0,1.1,0.6"/>
				<path class="st6" d="M157.7,160.3v1.3c0,0.6-0.5,0.6-1.1,0.6h-19"/>
			</g>
			<g>
				<path class="st7" d="M140.9,134.6c2.3,0,4-0.8,5.5-1.8s3.1-4.6,3.1-6.5c0-2-1.4-2.8-2.6-2.8c-1.2,0-2.6,0.4-2.6,2.6
					c0,2.2,1.1,4.8,2.6,6.3s4,2.1,6.5,2.1c2.5,0,4.1,0.3,5.6-0.7c1.4-1,1.3-4.3-2.1-4.4c-3.4-0.1-4.9,3.2-4.9,4.6v10.3"/>
				<path class="st7" d="M141,134.6c-2.5,0-4.6,0.4-6.1-0.6c-1.4-1-1.3-4.3,2.1-4.4c3.4-0.1,4.9,3.2,4.9,4.6c0,0.7,0,5.4,0,10.1"/>
			</g>
		</g>
	</g>
	<polygon class="st1" points="225.1,467.4 239.1,462.7 253.1,467.4 253.1,450.9 225.1,450.9 	"/>
</g>
</svg>
